<?xml version="1.0" encoding="UTF-8" standalone="no"?>
<!-- Created with Inkscape (http://www.inkscape.org/) -->

<svg
   width="250mm"
   height="250mm"
   viewBox="-50 -50 300 300"
   version="1.1"
   id="svg1"
   xml:space="preserve"
   inkscape:version="1.4 (e7c3feb100, 2024-10-09)"
   sodipodi:docname="cosy.svg"
   xmlns:inkscape="http://www.inkscape.org/namespaces/inkscape"
   xmlns:sodipodi="http://sodipodi.sourceforge.net/DTD/sodipodi-0.dtd"
   xmlns:xlink="http://www.w3.org/1999/xlink"
   xmlns="http://www.w3.org/2000/svg"
   xmlns:svg="http://www.w3.org/2000/svg"><sodipodi:namedview
     id="namedview1"
     pagecolor="#989898"
     bordercolor="#000000"
     borderopacity="0.25"
     inkscape:showpageshadow="2"
     inkscape:pageopacity="0.0"
     inkscape:pagecheckerboard="false"
     inkscape:deskcolor="#d1d1d1"
     inkscape:document-units="mm"
     inkscape:zoom="0.24661688"
     inkscape:cx="1119.1448"
     inkscape:cy="91.234631"
     inkscape:window-width="3840"
     inkscape:window-height="1995"
     inkscape:window-x="1440"
     inkscape:window-y="44"
     inkscape:window-maximized="1"
     inkscape:current-layer="layer2"
     showgrid="false" /><defs
     id="defs1"><inkscape:path-effect
       effect="perspective-envelope"
       up_left_point="27.056721,3.1507637e-16"
       up_right_point="174.91112,3.1507637e-16"
       down_left_point="-22.332948,54.999997"
       down_right_point="224.30079,54.999997"
       id="path-effect1020"
       is_visible="true"
       lpeversion="1"
       deform_type="perspective"
       horizontal_mirror="false"
       vertical_mirror="true"
       overflow_perspective="false" /><rect
       x="42.57616"
       y="689.32831"
       width="681.21857"
       height="275.73132"
       id="rect2" /><linearGradient
       id="linearGradient11"
       inkscape:collect="always"><stop
         style="stop-color:#692fb4;stop-opacity:1;"
         offset="0.40365288"
         id="stop11" /><stop
         style="stop-color:#9245ff;stop-opacity:1;"
         offset="0.60449773"
         id="stop12" /></linearGradient><linearGradient
       inkscape:collect="always"
       xlink:href="#linearGradient11"
       id="linearGradient12"
       x1="5.6768823"
       y1="132.02058"
       x2="202.04752"
       y2="132.02058"
       gradientUnits="userSpaceOnUse"
       gradientTransform="matrix(0.75682136,0,0,0.99661412,22.381928,-77.406268)" /></defs><g
     inkscape:groupmode="layer"
     id="layer2"
     inkscape:label="background"
     style="display:inline;opacity:1"
     transform="translate(-4.9999991,-0.41587587)"><rect
       style="display:none;fill:#ffffff;fill-opacity:1;stroke:none;stroke-width:0.197295"
       id="rect1"
       width="200"
       height="200"
       x="5"
       y="0.41587588"
       ry="0"
       inkscape:label="white" /><rect
       style="display:none;fill:#232841;fill-opacity:1;stroke:#000000;stroke-width:0.197101"
       id="rect879"
       width="199.8029"
       height="199.8029"
       x="5.0985503"
       y="0.51442635"
       ry="0"
       inkscape:label="black" /></g><path
     style="display:inline;opacity:1;fill:url(#linearGradient12);fill-rule:nonzero;stroke:none;stroke-width:0.868481;stroke-opacity:1"
     d="M 14.435535,54.694099 C 7.8765251,53.148931 3.3625528,49.585826 1.242359,44.548946 -1.7900895,37.344555 0.86224072,29.169816 7.7429813,21.507648 14.186454,14.332404 22.75915,8.9794781 33.110051,5.1721727 39.590972,2.7883501 46.143501,1.2556441 52.690926,0.54612453 55.745534,0.21511157 61.898778,0.13607604 64.834413,0.38960744 75.957829,1.3502641 84.834512,4.3578637 98.144837,12.072639 l 2.596233,1.504748 0.62158,-0.498984 c 2.93722,-2.357996 8.89659,-6.1057879 11.97854,-7.5736861 5.30027,-2.5243865 10.62501,-4.0059976 16.67416,-4.69560503 2.13199,-0.24305011 3.00723,-0.28249883 6.39582,-0.28876749 3.34942,-0.006123 4.25406,0.0287694 6.16478,0.23868987 11.93935,1.31168355 22.51839,5.31149155 29.89008,11.75420875 1.99696,1.745269 4.77876,5.305137 5.54818,7.161151 2.288,5.5191 0.88841,10.594669 -4.35926,13.923104 -1.66736,1.05756 -4.64207,2.257826 -5.26702,2.118065 -0.19167,-0.04318 0.20933,-0.541108 0.88503,-1.1023 2.5426,-2.111698 4.09256,-5.388862 4.09762,-8.428586 0.008,-5.03499 -3.27542,-9.783971 -8.91969,-13.528752 -5.07011,-3.3638143 -12.21418,-5.6664802 -19.33042,-6.3460578 -3.27348,-0.312588 -7.62222,-0.1941194 -10.6512,0.2915176 -2.88968,0.4632738 -4.40724,0.8481686 -6.37934,1.6227654 -4.83263,1.8981228 -9.2033,4.7429648 -15.0604,9.9396918 l -2.00456,1.778416 3.36167,2.016916 c 12.73493,7.640444 23.58169,12.739785 33.97563,15.723465 4.08622,1.172988 6.77184,1.664859 11.63197,2.123039 3.56828,0.336282 4.66215,0.351448 7.65227,0.104621 12.15699,-1.00336 18.57142,-6.025569 18.29194,-13.388814 -0.13466,-3.543518 -1.6958,-6.767793 -4.91295,-10.460306 C 174.71309,8.8163153 164.53505,3.3992402 152.82448,0.43484603 L 151.10665,0 l 0.90087,0.06437666 c 0.4961,0.03546997 1.87413,0.21508736 3.06686,0.39990792 11.31301,1.75307072 24.17401,7.38813062 33.54861,15.29113342 2.12337,1.790054 5.93503,5.942881 7.29853,7.994474 4.25242,6.398204 5.26166,12.078128 2.6399,17.799719 -2.65208,5.78765 -8.87405,9.997547 -18.39789,12.059909 -2.61729,0.566759 -4.00803,0.650158 -10.96852,0.656002 -7.44705,0.0093 -8.27197,-0.04654 -12.54234,-0.797882 C 144.23016,51.281479 132.70039,47.197155 120.95124,41.02357 113.6535,37.189002 108.08916,33.621349 96.996174,25.76893 83.118734,15.945471 78.883374,13.29538 73.118962,10.669847 70.098828,9.2942108 65.794829,7.8523087 63.010575,7.2701353 59.861489,6.6116163 54.12372,6.4039702 50.078281,6.7993114 39.647872,7.8185364 28.987489,11.795985 20.691858,18.128771 c -3.00793,2.29618 -4.614293,3.846889 -6.993861,6.792631 -2.565719,3.175957 -3.560122,4.908579 -4.8923579,8.626742 -2.8050468,7.828784 -0.4936825,15.628409 6.9233349,20.328332 1.476278,0.935385 1.635818,1.146057 0.843015,1.121693 -0.535073,-0.01774 -1.498094,-0.153205 -2.136866,-0.30399 z M 36.156989,53.52403 C 28.318175,52.582657 21.803631,49.683082 17.902479,45.548575 13.830611,41.233263 13.595039,34.850402 16.778502,28.899846 17.657643,27.256569 20.228885,23.885192 21.75752,22.34266 27.95748,16.085897 38.28891,10.967174 47.456836,9.2102942 48.32049,9.0447993 49.056292,8.9381059 49.094765,8.9727265 49.133099,9.007622 48.4961,9.258068 47.674326,9.5313244 c -2.104241,0.6997586 -6.901087,2.9042336 -8.978592,4.1383346 -2.302001,1.367408 -4.461662,2.923769 -6.478289,4.682738 -1.492705,1.301987 -1.848459,1.716812 -3.555518,4.164102 -1.725764,2.474232 -2.050273,3.055921 -2.406379,4.340201 -1.366938,4.930013 1.083382,9.406302 6.931613,11.856116 7.61088,3.188185 19.573552,2.830101 30.185213,-0.878671 6.155656,-2.151437 16.303267,-7.883607 22.089441,-12.341808 1.046607,-0.80636 2.009357,-1.461058 2.153572,-1.465818 0.144312,-0.0056 2.413633,1.622513 5.134508,3.685241 l 5.223119,3.959705 -0.50013,0.550243 c -0.937361,1.031401 -9.705318,7.315487 -13.124136,9.376801 -10.594463,6.387866 -21.707532,10.368132 -33.635514,11.800383 -3.85811,0.463071 -11.212719,0.526528 -14.556191,0.12526 z"
     id="path8"
     inkscape:label="infinite"
     inkscape:path-effect="#path-effect1020"
     inkscape:original-d="M 48.983218,94.378839 C 44.40433,92.993435 40.058881,89.675026 36.264427,84.666082 30.282025,76.768781 27.056606,66.571764 27.056724,55.556352 27.056848,43.657489 30.452302,33.562591 37.122253,25.63083 c 4.479985,-5.327461 9.845127,-8.913323 15.886929,-10.618202 2.854252,-0.805406 8.954095,-0.998668 11.995506,-0.380027 11.356988,2.31008 20.641716,9.21133 33.503244,24.902917 l 2.267518,2.766376 0.53528,-0.907677 c 2.60709,-4.421017 8.22426,-11.928228 11.25597,-15.043189 5.45785,-5.60759 10.98859,-9.056082 17.1661,-10.703083 2.20172,-0.587012 3.08614,-0.682613 6.45585,-0.697813 3.33123,-0.01485 4.21365,0.06974 6.00732,0.577147 11.00589,3.113359 18.4956,12.03668 20.83848,24.827348 0.58089,3.171129 0.64132,9.296698 0.12156,12.32082 -1.43952,8.375779 -5.20059,15.353663 -10.56314,19.59785 -1.63998,1.297965 -4.21967,2.742933 -4.59942,2.57619 -0.11652,-0.0516 0.36315,-0.649313 1.06619,-1.329075 2.70705,-2.617401 5.34287,-6.875603 6.84315,-11.055217 2.67896,-7.463348 2.71131,-15.200371 0.0913,-21.846942 -2.53613,-6.433643 -7.76826,-11.117144 -14.01568,-12.545876 -2.90612,-0.664562 -7.00516,-0.412145 -9.99491,0.615556 -2.82196,0.969969 -4.3344,1.76822 -6.35549,3.354121 -4.80948,3.773842 -9.17754,9.148428 -14.77579,18.180616 l -1.78527,2.880161 2.49747,3.147535 c 8.64477,10.894624 15.43759,17.37427 21.92093,20.91022 2.4614,1.342422 4.13718,1.89764 7.27581,2.410804 2.28945,0.374194 3.01947,0.391022 5.11972,0.116637 8.62703,-1.126888 15.48426,-7.059867 19.35755,-16.748221 2.05694,-5.145378 2.89243,-10.137604 2.72055,-16.256748 -0.3779,-13.446793 -5.94394,-24.986212 -15.40689,-31.940469 l -1.44544,-1.062239 0.861,0.157966 c 0.47356,0.08693 1.73504,0.525991 2.80339,0.975782 9.90096,4.168589 17.66227,16.47027 19.77378,31.341605 0.43184,3.041478 0.49447,9.694422 0.12038,12.788888 -1.07891,8.925541 -3.8659,16.039095 -8.83295,22.545292 -4.57845,5.997136 -10.29998,10.033637 -16.89542,11.919813 -1.77761,0.508358 -2.64406,0.582807 -6.84118,0.58802 -4.49093,0.0083 -4.97331,-0.04153 -7.36229,-0.715944 -7.1022,-2.005469 -13.59029,-5.9336 -20.42291,-12.36487 C 109.71112,76.587767 106.02883,72.302831 97.94683,61.87527 86.017564,46.483879 81.956315,41.790074 76.31608,36.87595 73.23194,34.188774 68.858973,31.28415 66.091903,30.084903 62.91857,28.709464 57.505841,28.271523 53.961892,29.103571 c -8.994068,2.111433 -15.951223,9.913711 -18.779794,21.061275 -0.93951,3.702508 -1.215129,6.110746 -1.200983,10.493656 0.01427,4.46347 0.319221,6.791914 1.512462,11.553643 2.277937,9.090183 7.4742,17.070201 13.959278,21.437526 1.237712,0.833473 1.410482,1.019626 0.926306,0.998127 -0.327355,-0.01566 -0.955628,-0.135366 -1.39616,-0.268888 z M 61.698602,93.332647 C 56.64098,92.477765 51.604279,89.767981 47.496137,85.691553 42.915034,81.145891 39.586352,73.808449 38.657856,66.209441 c -0.274169,-2.243929 -0.268256,-7.064976 0.01159,-9.374345 1.224701,-10.109549 6.989735,-19.38876 14.173305,-22.812859 0.690963,-0.32933 1.299229,-0.54228 1.351684,-0.473126 0.05243,0.06965 -0.392366,0.567973 -0.988512,1.108583 -1.510419,1.369848 -4.531137,5.553065 -5.64032,7.811014 -1.19623,2.435 -2.134315,5.12456 -2.812751,8.064151 -0.487105,2.110572 -0.543351,2.771744 -0.558516,6.565894 -0.01456,3.660005 0.04408,4.496096 0.443056,6.310511 1.448199,6.585756 5.221461,12.091104 10.233964,14.931696 6.227205,3.528966 14.062518,3.141662 20.34367,-1.005509 3.824528,-2.525219 10.144805,-9.725694 13.916843,-15.855173 0.71586,-1.163188 1.392524,-2.120575 1.50369,-2.127578 0.111167,-0.0083 1.995782,2.351596 4.188004,5.241095 l 3.985968,5.253774 -0.348999,0.701323 c -0.645153,1.296603 -6.405021,8.722264 -8.527699,10.994005 -6.151385,6.583507 -12.454176,10.368963 -19.44119,11.676793 -2.228543,0.416959 -6.657089,0.473876 -8.792973,0.113067 z" /><g
     inkscape:label="heart"
     inkscape:groupmode="layer"
     id="layer1"
     style="display:inline;opacity:1"
     transform="matrix(1.0883673,0,0,1.1000378,-9.9813885,-47.513918)"><path
       style="display:inline;fill:#5d0096;fill-opacity:1"
       d="M 96.734591,224.71739 C 92.843324,223.89401 89.523994,222.16136 84.299174,218.22625 76.185122,212.11509 65.442312,202.53703 51.360541,188.85887 38.557905,176.42317 30.433797,168.24973 28.404288,165.7632 19.318924,154.63192 12.5942,141.24888 10.070793,129.27726 9.1251635,124.79097 8.8864677,117.912 9.5385669,113.93904 11.072782,104.59172 16.116608,95.876086 25.290685,86.719794 c 3.838188,-3.830749 10.331229,-9.405346 12.706407,-10.909081 6.515483,-4.124977 12.976986,-5.813147 20.040921,-5.236009 9.560629,0.781122 18.010442,5.005182 27.319495,13.657009 3.982275,3.701124 6.686694,5.697229 9.634632,7.111226 3.9865,1.91215 8.16695,2.481829 11.67488,1.590961 2.25171,-0.571839 6.73634,-2.813073 12.47889,-6.236432 2.73518,-1.630546 5.65123,-3.368841 6.48012,-3.862879 2.40792,-1.435182 8.86556,-4.46233 11.45752,-5.37094 9.39557,-3.293616 17.33384,-2.928421 24.41547,1.123217 7.53762,4.312523 15.59475,13.403595 22.5059,25.394034 2.39865,4.1615 6.24077,11.98569 7.14836,14.55709 2.33444,6.61395 2.37254,13.5732 0.109,19.90789 -2.15325,6.02603 -5.71008,11.31862 -12.96111,19.28622 -7.43034,8.16463 -49.7491,50.14188 -57.62179,57.15679 -5.18779,4.62254 -9.79423,7.66582 -13.89062,9.17694 -1.93392,0.71341 -2.67519,0.84264 -5.29167,0.92254 -1.924821,0.0588 -3.674557,-0.0408 -4.762499,-0.27098 z"
       id="path7"
       inkscape:label="1 outer heart" /><path
       style="display:inline;fill:#a000d7;fill-opacity:1"
       d="m 94.617924,213.20966 c -3.93681,-1.00695 -6.219566,-2.38277 -11.963617,-7.21051 -4.521594,-3.80028 -19.036651,-18.32707 -27.975508,-27.99811 -3.833353,-4.14734 -8.301232,-8.96937 -9.92862,-10.71562 -7.284095,-7.81612 -13.007756,-17.505 -16.397104,-27.75664 -5.576467,-16.86695 -2.717261,-29.19525 9.611416,-41.442427 3.424278,-3.401643 8.155865,-7.335126 11.674267,-9.7051 4.913011,-3.309374 9.697133,-4.852763 15.08125,-4.865309 6.249195,-0.01456 11.455529,1.620424 17.350771,5.448802 2.818913,1.830607 5.097044,3.761581 9.107562,7.719694 4.511167,4.45222 6.934301,6.10884 10.332579,7.06406 4.89223,1.37515 7.15945,0.79435 16.70361,-4.279003 13.17436,-7.003041 19.09239,-8.826084 26.62491,-8.201765 7.9457,0.658566 15.56586,6.791885 22.87025,18.407828 3.56036,5.66193 8.28751,15.71754 9.50054,20.20959 0.86629,3.20801 0.87072,9.22242 0.009,12.26485 -0.89386,3.15598 -3.20803,7.66851 -5.52002,10.76379 -4.21248,5.63962 -19.10069,19.67796 -46.12507,43.49206 -11.92495,10.50837 -14.67651,12.68809 -18.80761,14.89899 -4.21018,2.25322 -8.287251,2.89247 -12.148636,1.90482 z"
       id="path6"
       inkscape:label="2 outer heart" /><path
       style="display:inline;opacity:1;fill:#be00f4;fill-opacity:1"
       d="m 99.460634,206.82783 c -1.525152,-0.30134 -4.036603,-1.34327 -5.801589,-2.40692 -5.765058,-3.47426 -17.889536,-13.75204 -34.556473,-29.29312 -6.330352,-5.90274 -8.518018,-8.26474 -11.306976,-12.208 -6.595498,-9.32527 -10.05892,-18.53825 -10.062023,-26.76579 -0.0022,-5.94593 1.702879,-10.86824 5.75932,-16.62587 2.086796,-2.96196 9.250639,-10.26066 12.290937,-12.5223 6.041786,-4.49443 13.227214,-5.64998 20.577844,-3.30931 3.864043,1.23043 8.569855,4.08872 12.567709,7.63359 4.235703,3.75576 7.649286,5.50086 11.241917,5.7471 3.39437,0.23266 5.08404,-0.44525 11.83849,-4.74973 9.25486,-5.89794 13.71057,-7.846 19.22991,-8.40743 3.45056,-0.35099 5.62586,0.041 8.88656,1.60147 6.93981,3.32112 14.42739,12.17677 20.46526,24.20451 2.0715,4.12654 2.65583,6.37969 2.63877,10.17501 -0.0163,3.63915 -0.58974,6.06172 -2.22875,9.41657 -2.81892,5.76994 -8.38393,12.17518 -31.3552,36.08933 -10.6913,11.13013 -16.05411,16.39776 -18.37828,18.05207 -4.22467,3.00706 -8.07638,4.106 -11.807426,3.36882 z"
       id="path5"
       inkscape:label="3 outer heart" /><path
       style="display:inline;fill:#dc2dff;fill-opacity:1"
       d="M 99.512716,196.41457 C 96.004052,195.29902 90.270374,191.37914 79.404383,182.6673 73.466031,177.90621 64.036146,169.94971 61.987198,167.97149 55.536297,161.74325 50.294832,152.82558 48.676454,145.325 c -0.586162,-2.71665 -0.51458,-7.18935 0.156674,-9.78958 0.636774,-2.46667 2.153764,-5.76152 3.7405,-8.12423 2.587798,-3.85333 8.15594,-9.68245 11.098915,-11.61911 3.108976,-2.04591 7.016732,-3.0565 10.807217,-2.79488 4.840553,0.3341 9.052419,2.13934 14.45286,6.19462 1.893551,1.42189 4.33419,2.99521 5.423643,3.49627 1.7237,0.79274 2.25562,0.91215 4.097804,0.91987 1.914793,0.008 2.306503,-0.0844 4.101353,-0.9677 1.09141,-0.53712 3.59172,-2.12206 5.55625,-3.52211 7.50713,-5.35005 11.55828,-7.20535 16.28177,-7.45654 3.76317,-0.20013 6.13783,0.55409 10.04427,3.1902 4.46739,3.01462 10.91083,11.12073 14.45841,18.18923 2.76507,5.50937 2.35447,11.7077 -1.16193,17.54027 -2.6367,4.37344 -9.02201,12.12519 -24.65579,29.93209 -10.0205,11.41336 -13.74377,14.85991 -17.14372,15.86959 -1.62565,0.48276 -4.95144,0.49912 -6.421964,0.0316 z"
       id="path4"
       inkscape:label="4 inner heart" /><path
       style="display:inline;fill:#fc51ff;fill-opacity:1"
       d="m 94.104604,186.3217 c -3.267139,-1.52081 -8.242192,-6.46005 -19.707335,-19.56545 -4.659371,-5.32596 -6.216842,-7.51787 -8.084036,-11.37708 -2.310319,-4.77509 -3.226802,-8.31387 -3.220559,-12.43542 0.0047,-3.13209 0.552827,-5.32399 1.960813,-7.8417 1.659083,-2.96672 5.185621,-6.50357 9.208573,-9.2355 4.199212,-2.85163 8.158302,-3.52525 12.314617,-2.09527 2.966087,1.02048 4.648434,2.16149 8.095916,5.49084 5.737677,5.54107 6.816587,5.71421 14.100537,2.2628 6.50906,-3.08423 7.54744,-3.39784 11.25036,-3.39784 2.90441,0 3.1307,0.0406 4.79504,0.85994 2.03367,1.00117 4.8791,3.82138 6.69401,6.63466 2.53016,3.922 4.97934,9.52708 5.4832,12.54861 0.6009,3.60348 -0.67071,7.33217 -3.74391,10.97805 -3.19982,3.7961 -25.84476,23.09313 -30.56411,26.0454 -3.003489,1.87889 -6.096653,2.28538 -8.583116,1.12796 z"
       id="path3"
       inkscape:label="5 inner heart" /><path
       id="path2"
       style="display:inline;opacity:1;mix-blend-mode:normal;fill:#ff7bff;fill-opacity:1"
       inkscape:label="6 inner heart"
       d="m 87.619975,131.56665 c 2.228406,0 2.532717,0.068 4.375443,0.97875 2.009943,0.99337 3.193254,2.08242 6.839893,6.29367 1.587599,1.83339 2.999899,2.63477 4.658629,2.64377 0.60587,0.003 2.78565,-0.57749 5.01933,-1.33687 7.19273,-2.44526 10.35112,-2.2256 13.4891,0.93741 2.32927,2.34782 4.25843,6.31123 5.60638,11.51764 1.50905,5.82873 -0.1695,8.98524 -7.59489,14.28182 -5.4447,3.88374 -18.68454,12.57464 -20.700025,13.5878 -2.396823,1.20486 -4.646921,1.50485 -6.415629,0.85524 -2.125365,-0.78061 -6.742809,-6.34918 -14.136088,-17.04754 -3.235581,-4.68199 -4.602076,-7.30399 -5.741252,-11.01741 -0.649669,-2.11778 -0.731704,-2.80353 -0.745174,-6.22908 l -0.01499,-3.84938 0.992187,-2.00866 c 1.629968,-3.29931 5.130524,-6.33986 9.94668,-8.63978 1.869858,-0.89292 2.209587,-0.96738 4.420402,-0.96738 z"
       sodipodi:nodetypes="sssccssssssscccsss" /></g></svg>
