<?xml version="1.0" encoding="UTF-8" standalone="no"?>
<svg
   viewBox="-37 -32 218.737 218.737"
   version="1.1"
   id="svg28"
   sodipodi:docname="listenbrainz.svg"
   width="143"
   height="143"
   inkscape:version="1.4 (e7c3feb100, 2024-10-09)"
   xmlns:inkscape="http://www.inkscape.org/namespaces/inkscape"
   xmlns:sodipodi="http://sodipodi.sourceforge.net/DTD/sodipodi-0.dtd"
   xmlns="http://www.w3.org/2000/svg"
   xmlns:svg="http://www.w3.org/2000/svg">
  <sodipodi:namedview
     id="namedview28"
     pagecolor="#ffffff"
     bordercolor="#666666"
     borderopacity="1.0"
     inkscape:showpageshadow="2"
     inkscape:pageopacity="0.0"
     inkscape:pagecheckerboard="0"
     inkscape:deskcolor="#d1d1d1"
     inkscape:zoom="11.04375"
     inkscape:cx="72.529711"
     inkscape:cy="80"
     inkscape:window-width="3840"
     inkscape:window-height="1995"
     inkscape:window-x="1440"
     inkscape:window-y="44"
     inkscape:window-maximized="1"
     inkscape:current-layer="svg28" />
  <defs
     id="defs1">
    <style
       id="style1">.c{isolation:isolate;}.d{fill:#fffedb;}.e{fill:#353070;}.f{opacity:.07;}.f,.g{mix-blend-mode:multiply;}.g{opacity:.25;}.h{clip-path:url(#b);}.i{fill:none;}.j{fill:#d3562c;}.k{fill:#eb743b;}</style>
    <clipPath
       id="b">
      <rect
         class="i"
         x="75"
         y="33.419998"
         width="51.43"
         height="90.790001"
         id="rect1" />
    </clipPath>
  </defs>
  <g
     class="c"
     id="g28">
    <g
       id="a">
      <g
         id="g27">
        <polygon
           class="k"
           points="75,152 136,117 136,43 75,8 "
           id="polygon1" />
        <polygon
           class="e"
           points="9,42.92 9,116.92 70,151.92 70,7.92 "
           id="polygon2" />
        <g
           class="f"
           id="g10">
          <g
             class="h"
             clip-path="url(#b)"
             id="g9">
            <path
               d="m 92.3,99.73 c 0.39,-0.65 1.07,-1.03 1.82,-1.03 0.38,0 0.75,0.1 1.08,0.3 1,0.6 1.33,1.9 0.74,2.9 -0.39,0.65 -1.06,1.03 -1.82,1.03 -0.38,0 -0.75,-0.11 -1.08,-0.3 -0.48,-0.29 -0.83,-0.75 -0.96,-1.29 -0.14,-0.55 -0.06,-1.12 0.23,-1.6 m 12.6,22.36 c -0.49,0.42 -1.02,0.51 -1.37,0.51 -0.62,0 -1.21,-0.27 -1.61,-0.74 -0.76,-0.88 -0.66,-2.22 0.23,-2.98 0.49,-0.42 1.02,-0.51 1.37,-0.51 0.62,0 1.2,0.27 1.61,0.74 0.37,0.43 0.55,0.98 0.5,1.54 -0.04,0.56 -0.3,1.07 -0.73,1.44"
               id="path2" />
            <path
               d="m 84,53.61 c 0.07,0.02 0.14,0.03 0.21,0.05 C 84.14,53.65 84.07,53.63 84,53.61"
               id="path3" />
            <path
               d="m 95.38,63.26 c 0.17,-0.27 0.39,-0.49 0.67,-0.66 0.33,-0.21 0.72,-0.32 1.12,-0.32 0.4,0 0.79,0.11 1.12,0.32 0.99,0.63 1.28,1.94 0.66,2.92 -0.39,0.62 -1.06,0.99 -1.8,0.99 -0.4,0 -0.78,-0.11 -1.12,-0.33 -0.98,-0.63 -1.28,-1.94 -0.66,-2.92 m 6.38,-20.19 c -0.6,0.95 -1.94,1.27 -2.91,0.65 l -0.1,-0.06 c -0.91,-0.65 -1.16,-1.9 -0.56,-2.85 0.38,-0.61 1.05,-0.98 1.78,-0.98 0.4,0 0.79,0.11 1.12,0.33 0.48,0.3 0.81,0.77 0.94,1.33 0.12,0.55 0.03,1.1 -0.28,1.58"
               id="path4" />
            <path
               d="m 118.53,54.67 c 0.39,-0.62 1.05,-0.98 1.78,-0.98 0.4,0 0.79,0.11 1.12,0.33 0.48,0.3 0.81,0.77 0.94,1.33 0.12,0.55 0.02,1.11 -0.28,1.58 -0.6,0.95 -1.94,1.27 -2.91,0.65 l -0.09,-0.06 c -0.92,-0.65 -1.16,-1.9 -0.56,-2.85 m 0,23.46 c 0.39,-0.61 1.05,-0.98 1.78,-0.98 0.4,0 0.79,0.11 1.12,0.33 0.48,0.3 0.81,0.77 0.94,1.33 0.12,0.55 0.02,1.11 -0.28,1.58 -0.6,0.95 -1.94,1.27 -2.91,0.65 l -0.09,-0.06 c -0.92,-0.65 -1.16,-1.9 -0.56,-2.85 m 0,26.3 c 0.39,-0.61 1.05,-0.98 1.78,-0.98 0.4,0 0.79,0.11 1.12,0.33 0.48,0.3 0.81,0.77 0.94,1.33 0.12,0.55 0.02,1.11 -0.28,1.58 -0.6,0.95 -1.94,1.27 -2.91,0.65 l -0.09,-0.06 c -0.92,-0.65 -1.16,-1.9 -0.56,-2.85"
               id="path5" />
            <path
               d="m 108.18,114.1 c -1.16,-1.36 -2.86,-2.14 -4.65,-2.14 -1.46,0 -2.88,0.53 -3.98,1.48 -1.61,1.38 -2.33,3.43 -2.09,5.4 -1.95,0.7 -4.26,1.37 -5.33,1.33 -0.82,-0.04 -1.3,-0.34 -2.22,-0.97 -1.17,-0.79 -2.42,-1.51 -4.15,-1.85 2.94,-2.76 6.01,-6.83 8.58,-12.83 2.06,-0.08 3.98,-1.19 5.04,-2.97 1.72,-2.9 0.77,-6.66 -2.12,-8.39 -0.95,-0.57 -2.03,-0.86 -3.13,-0.86 -2.15,0 -4.16,1.14 -5.26,2.99 -0.84,1.41 -1.08,3.05 -0.68,4.64 0.35,1.39 1.16,2.59 2.3,3.43 -4.05,9.22 -9.22,13.08 -12.56,14.68 -0.13,0.04 -0.25,0.1 -0.36,0.17 -1.19,0.53 -2.05,0.71 -2.56,0.81 v 4 c 0.27,-0.03 1.88,-0.12 4.25,-1.19 5.35,-1.36 6.84,-0.35 8.41,0.71 1.02,0.69 2.29,1.55 4.26,1.66 0.1,0 0.2,0 0.31,0 2.11,0 5.17,-1.02 7.02,-1.72 1.14,1.12 2.68,1.75 4.29,1.75 1.46,0 2.88,-0.53 3.98,-1.48 1.24,-1.06 1.99,-2.55 2.12,-4.18 0.12,-1.63 -0.39,-3.21 -1.46,-4.45 M 92.32,97.34 c 0.39,-0.65 1.07,-1.03 1.82,-1.03 0.38,0 0.75,0.11 1.08,0.3 1,0.6 1.33,1.9 0.74,2.9 -0.39,0.65 -1.06,1.03 -1.82,1.03 -0.38,0 -0.75,-0.11 -1.08,-0.3 -0.48,-0.29 -0.83,-0.75 -0.96,-1.29 -0.14,-0.55 -0.06,-1.12 0.23,-1.6 m 12.6,22.36 c -0.49,0.42 -1.02,0.51 -1.37,0.51 -0.62,0 -1.21,-0.27 -1.61,-0.73 -0.76,-0.88 -0.66,-2.22 0.23,-2.98 0.49,-0.42 1.02,-0.51 1.37,-0.51 0.62,0 1.2,0.27 1.61,0.74 0.37,0.43 0.55,0.98 0.5,1.54 -0.05,0.56 -0.3,1.07 -0.73,1.44"
               id="path6" />
            <path
               d="m 84,51.21 c 0.07,0.02 0.14,0.03 0.21,0.05 C 84.14,51.25 84.07,51.23 84,51.21"
               id="path7" />
            <path
               d="m 105.95,38.21 c -0.36,-1.6 -1.32,-2.96 -2.71,-3.84 -0.98,-0.62 -2.11,-0.94 -3.26,-0.94 -2.12,0 -4.05,1.07 -5.17,2.85 -1.35,2.14 -1.22,4.8 0.14,6.76 -3.65,4.12 -8.71,4.31 -9.94,4.29 -3.69,-1.6 -7.23,-2.16 -10,-2.32 v 4 c 2.44,0.14 5.55,0.69 8.75,2.14 0,0 0,0 0.01,0 3.45,1.56 6.33,3.93 8.61,7.04 -0.13,0.17 -0.26,0.35 -0.38,0.54 -1.8,2.85 -0.94,6.65 1.9,8.44 0.98,0.62 2.11,0.95 3.27,0.95 2.11,0 4.05,-1.06 5.18,-2.85 1.81,-2.85 0.95,-6.64 -1.91,-8.45 -1.38,-0.87 -3.09,-1.11 -4.67,-0.75 -1.54,-2.16 -3.32,-4.02 -5.34,-5.57 2.52,-0.78 5.4,-2.27 7.78,-5.09 0.57,0.17 1.17,0.27 1.77,0.27 2.12,0 4.05,-1.07 5.17,-2.85 0.87,-1.38 1.16,-3.01 0.8,-4.6 M 95.38,60.88 c 0.17,-0.27 0.39,-0.49 0.67,-0.66 0.33,-0.21 0.72,-0.32 1.12,-0.32 0.4,0 0.79,0.11 1.12,0.32 0.99,0.63 1.28,1.94 0.66,2.92 -0.39,0.62 -1.06,0.99 -1.8,0.99 -0.4,0 -0.78,-0.11 -1.12,-0.33 -0.98,-0.62 -1.28,-1.94 -0.66,-2.92 m 6.38,-20.19 c -0.6,0.95 -1.94,1.27 -2.91,0.65 l -0.1,-0.06 c -0.91,-0.65 -1.16,-1.9 -0.56,-2.85 0.38,-0.61 1.05,-0.98 1.78,-0.98 0.4,0 0.79,0.11 1.12,0.33 0.48,0.31 0.81,0.77 0.94,1.33 0.12,0.55 0.03,1.11 -0.28,1.58"
               id="path8" />
            <path
               d="m 114.65,79.19 c 0.42,1.03 1.14,1.96 2.11,2.65 0.07,0.05 0.15,0.1 0.28,0.19 0.98,0.62 2.11,0.95 3.27,0.95 2.12,0 4.05,-1.07 5.17,-2.85 0.88,-1.38 1.16,-3.01 0.8,-4.61 -0.36,-1.6 -1.32,-2.96 -2.71,-3.84 -0.98,-0.62 -2.11,-0.94 -3.27,-0.94 -0.12,0 -0.25,0 -0.37,0.02 -0.71,-3.16 -0.92,-7.77 0.03,-11.26 0.11,0.01 0.23,0.02 0.34,0.02 2.12,0 4.05,-1.07 5.17,-2.85 0.88,-1.38 1.16,-3.01 0.8,-4.6 -0.36,-1.6 -1.32,-2.96 -2.71,-3.84 -0.98,-0.62 -2.11,-0.94 -3.27,-0.94 -2.11,0 -4.05,1.07 -5.17,2.85 -1.6,2.53 -1.12,5.8 1.02,7.77 0.02,0.02 0.05,0.04 0.07,0.06 -1.35,4.52 -1.14,10.32 -0.04,14.42 -0.14,0.13 -0.29,0.26 -0.43,0.4 -0.23,0.26 -0.45,0.53 -0.63,0.82 -0.32,0.5 -0.55,1.03 -0.71,1.58 -3.37,0.49 -5.2,1.67 -6.82,2.73 -2.04,1.33 -3.96,2.57 -9.64,2.67 -1.96,-0.23 -3.55,-0.18 -5.29,-0.12 -1.43,0.05 -2.91,0.11 -4.85,0 -1.34,-0.07 -2.1,-0.88 -3.46,-2.42 -1.8,-2.06 -4.22,-4.65 -9.37,-5.02 v 4 c 3.29,0.3 4.8,1.89 6.36,3.67 1.49,1.69 3.17,3.62 6.26,3.78 2.12,0.11 3.76,0.05 5.21,0 2.49,-0.09 4.45,-0.16 7.85,0.68 2.61,0.64 12.1,9.67 14.77,14.32 -0.11,0.14 -0.22,0.28 -0.31,0.43 -1.74,2.76 -1.03,6.39 1.62,8.25 0.07,0.05 0.15,0.11 0.28,0.19 0.98,0.62 2.11,0.95 3.27,0.95 2.12,0 4.05,-1.07 5.17,-2.85 0.88,-1.37 1.16,-3.01 0.8,-4.6 -0.36,-1.6 -1.32,-2.96 -2.71,-3.84 -0.98,-0.62 -2.11,-0.94 -3.27,-0.94 -0.53,0 -1.05,0.07 -1.54,0.19 -2.56,-4.19 -8.65,-10.45 -13.19,-13.79 1.81,-0.63 3.05,-1.44 4.21,-2.19 1.43,-0.93 2.61,-1.69 4.86,-2.07 m 3.88,-26.93 c 0.39,-0.61 1.05,-0.98 1.78,-0.98 0.4,0 0.79,0.11 1.12,0.32 0.48,0.3 0.81,0.77 0.94,1.33 0.12,0.55 0.02,1.11 -0.28,1.58 -0.6,0.95 -1.94,1.27 -2.91,0.65 l -0.09,-0.06 c -0.92,-0.65 -1.16,-1.9 -0.56,-2.85 m 0,23.46 c 0.39,-0.62 1.05,-0.98 1.78,-0.98 0.4,0 0.79,0.11 1.12,0.33 0.48,0.31 0.81,0.77 0.94,1.33 0.12,0.55 0.02,1.11 -0.28,1.58 -0.6,0.95 -1.94,1.27 -2.91,0.65 l -0.09,-0.06 c -0.92,-0.65 -1.16,-1.9 -0.56,-2.85 m 0,26.3 c 0.39,-0.61 1.05,-0.98 1.78,-0.98 0.4,0 0.79,0.11 1.12,0.33 0.48,0.31 0.81,0.78 0.94,1.33 0.12,0.55 0.02,1.11 -0.28,1.58 -0.6,0.95 -1.94,1.27 -2.91,0.66 l -0.09,-0.06 c -0.92,-0.65 -1.16,-1.9 -0.56,-2.85"
               id="path9" />
          </g>
        </g>
        <path
           class="j"
           d="m 108.18,117.1 c -1.16,-1.36 -2.86,-2.14 -4.65,-2.14 -1.46,0 -2.88,0.53 -3.98,1.48 -1.61,1.38 -2.33,3.43 -2.09,5.4 -1.95,0.7 -4.26,1.37 -5.33,1.33 -0.82,-0.04 -1.3,-0.34 -2.22,-0.97 -1.17,-0.79 -2.42,-1.51 -4.15,-1.85 2.94,-2.76 6.01,-6.83 8.58,-12.83 2.06,-0.08 3.98,-1.19 5.04,-2.97 1.72,-2.9 0.77,-6.66 -2.12,-8.39 -0.95,-0.57 -2.03,-0.86 -3.13,-0.86 -2.15,0 -4.16,1.14 -5.26,2.99 -0.84,1.41 -1.08,3.05 -0.68,4.64 0.35,1.39 1.16,2.59 2.3,3.43 -4.05,9.22 -9.22,13.08 -12.56,14.68 -0.13,0.04 -0.25,0.1 -0.36,0.17 -1.19,0.53 -2.05,0.71 -2.56,0.81 v 4 c 0.27,-0.03 1.88,-0.12 4.25,-1.19 5.35,-1.36 6.84,-0.35 8.41,0.71 1.02,0.69 2.29,1.55 4.26,1.66 0.1,0 0.2,0 0.31,0 2.11,0 5.17,-1.02 7.02,-1.72 1.14,1.12 2.68,1.75 4.29,1.75 1.46,0 2.88,-0.53 3.98,-1.48 1.24,-1.06 1.99,-2.54 2.12,-4.18 0.12,-1.63 -0.39,-3.21 -1.46,-4.45 M 92.32,100.34 c 0.39,-0.65 1.07,-1.03 1.82,-1.03 0.38,0 0.75,0.11 1.08,0.3 1,0.6 1.33,1.9 0.74,2.9 -0.39,0.65 -1.06,1.03 -1.82,1.03 -0.38,0 -0.75,-0.11 -1.08,-0.3 -0.48,-0.29 -0.83,-0.75 -0.96,-1.29 -0.14,-0.55 -0.06,-1.12 0.23,-1.6 m 12.6,22.36 c -0.49,0.42 -1.02,0.51 -1.37,0.51 -0.62,0 -1.21,-0.27 -1.61,-0.73 -0.76,-0.88 -0.66,-2.22 0.23,-2.98 0.49,-0.42 1.02,-0.51 1.37,-0.51 0.62,0 1.2,0.27 1.61,0.74 0.37,0.43 0.55,0.98 0.5,1.54 -0.05,0.56 -0.3,1.07 -0.73,1.44"
           id="path10" />
        <path
           d="m 84,53.61 c 0.07,0.02 0.14,0.03 0.21,0.05 C 84.14,53.65 84.07,53.63 84,53.61"
           id="path11" />
        <path
           class="j"
           d="m 105.95,40.21 c -0.36,-1.6 -1.32,-2.96 -2.71,-3.84 -0.98,-0.62 -2.11,-0.94 -3.26,-0.94 -2.12,0 -4.05,1.06 -5.17,2.85 -1.35,2.14 -1.22,4.8 0.14,6.76 -3.65,4.12 -8.71,4.31 -9.94,4.29 -3.69,-1.61 -7.23,-2.17 -10,-2.32 V 51 c 2.44,0.14 5.55,0.69 8.75,2.14 h 0.01 c 3.45,1.57 6.33,3.93 8.61,7.05 -0.13,0.17 -0.26,0.35 -0.38,0.54 -1.8,2.85 -0.94,6.64 1.9,8.44 0.98,0.62 2.11,0.95 3.27,0.95 2.11,0 4.05,-1.07 5.18,-2.85 1.81,-2.85 0.95,-6.64 -1.91,-8.45 -1.38,-0.87 -3.09,-1.11 -4.67,-0.75 -1.54,-2.16 -3.32,-4.02 -5.34,-5.57 2.52,-0.78 5.4,-2.27 7.78,-5.1 0.57,0.17 1.17,0.27 1.77,0.27 2.12,0 4.05,-1.07 5.17,-2.85 0.87,-1.38 1.16,-3.01 0.8,-4.6 M 95.38,62.87 c 0.17,-0.27 0.39,-0.49 0.67,-0.66 0.33,-0.21 0.72,-0.32 1.12,-0.32 0.4,0 0.79,0.11 1.12,0.32 0.99,0.63 1.28,1.94 0.66,2.92 -0.39,0.62 -1.06,0.99 -1.8,0.99 -0.4,0 -0.78,-0.11 -1.12,-0.33 -0.98,-0.63 -1.28,-1.94 -0.66,-2.92 m 6.38,-20.19 c -0.6,0.95 -1.94,1.27 -2.91,0.65 l -0.1,-0.06 c -0.91,-0.65 -1.16,-1.9 -0.56,-2.85 0.38,-0.61 1.05,-0.98 1.78,-0.98 0.4,0 0.79,0.11 1.12,0.33 0.48,0.3 0.81,0.77 0.94,1.33 0.12,0.55 0.03,1.1 -0.28,1.58"
           id="path12" />
        <path
           class="j"
           d="m 114.65,82.19 c 0.42,1.03 1.14,1.96 2.11,2.65 0.07,0.05 0.15,0.1 0.28,0.19 0.98,0.62 2.11,0.95 3.27,0.95 2.12,0 4.05,-1.07 5.17,-2.85 0.88,-1.37 1.16,-3.01 0.8,-4.6 -0.36,-1.6 -1.32,-2.96 -2.71,-3.84 -0.98,-0.62 -2.11,-0.94 -3.27,-0.94 -0.12,0 -0.25,0 -0.37,0.02 -0.71,-3.16 -0.92,-7.77 0.03,-11.26 0.11,0.01 0.23,0.02 0.34,0.02 2.12,0 4.05,-1.07 5.17,-2.85 0.88,-1.38 1.16,-3.01 0.8,-4.6 -0.36,-1.6 -1.32,-2.96 -2.71,-3.84 -0.98,-0.62 -2.11,-0.94 -3.27,-0.94 -2.11,0 -4.05,1.06 -5.17,2.85 -1.6,2.53 -1.12,5.8 1.02,7.77 0.02,0.02 0.05,0.04 0.07,0.06 -1.35,4.52 -1.14,10.32 -0.04,14.42 -0.14,0.13 -0.29,0.25 -0.43,0.4 -0.23,0.26 -0.45,0.53 -0.63,0.82 -0.32,0.5 -0.55,1.03 -0.71,1.58 -3.37,0.49 -5.2,1.67 -6.82,2.73 -2.04,1.32 -3.96,2.57 -9.64,2.66 -1.96,-0.23 -3.55,-0.18 -5.29,-0.12 -1.43,0.05 -2.91,0.11 -4.85,0 -1.34,-0.07 -2.1,-0.88 -3.46,-2.42 -1.8,-2.06 -4.22,-4.65 -9.37,-5.02 v 4 c 3.29,0.3 4.8,1.89 6.36,3.67 1.49,1.69 3.17,3.62 6.26,3.78 2.12,0.11 3.76,0.05 5.21,0 2.49,-0.09 4.45,-0.16 7.85,0.68 2.61,0.64 12.1,9.67 14.77,14.32 -0.11,0.14 -0.22,0.28 -0.31,0.43 -1.74,2.76 -1.03,6.39 1.62,8.25 0.07,0.05 0.15,0.11 0.28,0.19 0.98,0.62 2.11,0.95 3.27,0.95 2.12,0 4.05,-1.07 5.17,-2.85 0.88,-1.37 1.16,-3.01 0.8,-4.6 -0.36,-1.6 -1.32,-2.96 -2.71,-3.84 -0.98,-0.62 -2.11,-0.94 -3.27,-0.94 -0.53,0 -1.05,0.07 -1.54,0.19 -2.56,-4.19 -8.65,-10.45 -13.19,-13.79 1.81,-0.63 3.05,-1.44 4.21,-2.19 1.43,-0.93 2.61,-1.69 4.86,-2.07 m 3.88,-26.93 c 0.39,-0.61 1.05,-0.98 1.78,-0.98 0.4,0 0.79,0.11 1.12,0.32 0.48,0.31 0.81,0.77 0.94,1.33 0.12,0.55 0.02,1.11 -0.28,1.58 -0.6,0.95 -1.94,1.27 -2.91,0.65 l -0.09,-0.06 c -0.92,-0.65 -1.16,-1.9 -0.56,-2.85 m 0,23.46 c 0.39,-0.62 1.05,-0.98 1.78,-0.98 0.4,0 0.79,0.11 1.12,0.33 0.48,0.31 0.81,0.77 0.94,1.33 0.12,0.55 0.02,1.11 -0.28,1.58 -0.6,0.95 -1.94,1.27 -2.91,0.65 l -0.09,-0.06 c -0.92,-0.65 -1.16,-1.9 -0.56,-2.85 m 0,26.3 c 0.39,-0.61 1.05,-0.98 1.78,-0.98 0.4,0 0.79,0.11 1.12,0.33 0.48,0.31 0.81,0.78 0.94,1.33 0.12,0.55 0.02,1.11 -0.28,1.58 -0.6,0.95 -1.94,1.27 -2.91,0.66 l -0.09,-0.06 c -0.92,-0.65 -1.16,-1.9 -0.56,-2.85"
           id="path13" />
        <path
           class="d"
           d="m 108.18,114.1 c -1.16,-1.36 -2.86,-2.14 -4.65,-2.14 -1.46,0 -2.88,0.53 -3.98,1.48 -1.61,1.38 -2.33,3.43 -2.09,5.4 -1.95,0.7 -4.26,1.37 -5.33,1.33 -0.82,-0.04 -1.3,-0.34 -2.22,-0.97 -1.17,-0.79 -2.42,-1.51 -4.15,-1.85 2.94,-2.76 6.01,-6.83 8.58,-12.83 2.06,-0.08 3.98,-1.19 5.04,-2.97 1.72,-2.9 0.77,-6.66 -2.12,-8.39 -0.95,-0.57 -2.03,-0.86 -3.13,-0.86 -2.15,0 -4.16,1.14 -5.26,2.99 -0.84,1.41 -1.08,3.05 -0.68,4.64 0.35,1.39 1.16,2.59 2.3,3.43 -4.05,9.22 -9.22,13.08 -12.56,14.68 -0.13,0.04 -0.25,0.1 -0.36,0.17 -1.19,0.53 -2.05,0.71 -2.56,0.81 v 4 c 0.27,-0.03 1.88,-0.12 4.25,-1.19 5.35,-1.36 6.84,-0.35 8.41,0.71 1.02,0.69 2.29,1.55 4.26,1.66 0.1,0 0.2,0 0.31,0 2.11,0 5.17,-1.02 7.02,-1.72 1.14,1.12 2.68,1.75 4.29,1.75 1.46,0 2.88,-0.53 3.98,-1.48 1.24,-1.06 1.99,-2.55 2.12,-4.18 0.12,-1.63 -0.39,-3.21 -1.46,-4.45 M 92.32,97.34 c 0.39,-0.65 1.07,-1.03 1.82,-1.03 0.38,0 0.75,0.11 1.08,0.3 1,0.6 1.33,1.9 0.74,2.9 -0.39,0.65 -1.06,1.03 -1.82,1.03 -0.38,0 -0.75,-0.11 -1.08,-0.3 -0.48,-0.29 -0.83,-0.75 -0.96,-1.29 -0.14,-0.55 -0.06,-1.12 0.23,-1.6 m 12.6,22.36 c -0.49,0.42 -1.02,0.51 -1.37,0.51 -0.62,0 -1.21,-0.27 -1.61,-0.73 -0.76,-0.88 -0.66,-2.22 0.23,-2.98 0.49,-0.42 1.02,-0.51 1.37,-0.51 0.62,0 1.2,0.27 1.61,0.74 0.37,0.43 0.55,0.98 0.5,1.54 -0.05,0.56 -0.3,1.07 -0.73,1.44"
           id="path14" />
        <path
           class="d"
           d="m 84,51.21 c 0.07,0.02 0.14,0.03 0.21,0.05 C 84.14,51.25 84.07,51.23 84,51.21"
           id="path15" />
        <path
           class="d"
           d="m 105.95,38.21 c -0.36,-1.6 -1.32,-2.96 -2.71,-3.84 -0.98,-0.62 -2.11,-0.94 -3.26,-0.94 -2.12,0 -4.05,1.07 -5.17,2.85 -1.35,2.14 -1.22,4.8 0.14,6.76 -3.65,4.12 -8.71,4.31 -9.94,4.29 -3.69,-1.6 -7.23,-2.16 -10,-2.32 v 4 c 2.44,0.14 5.55,0.69 8.75,2.14 0,0 0,0 0.01,0 3.45,1.56 6.33,3.93 8.61,7.04 -0.13,0.17 -0.26,0.35 -0.38,0.54 -1.8,2.85 -0.94,6.65 1.9,8.44 0.98,0.62 2.11,0.95 3.27,0.95 2.11,0 4.05,-1.06 5.18,-2.85 1.81,-2.85 0.95,-6.64 -1.91,-8.45 -1.38,-0.87 -3.09,-1.11 -4.67,-0.75 -1.54,-2.16 -3.32,-4.02 -5.34,-5.57 2.52,-0.78 5.4,-2.27 7.78,-5.09 0.57,0.17 1.17,0.27 1.77,0.27 2.12,0 4.05,-1.07 5.17,-2.85 0.87,-1.38 1.16,-3.01 0.8,-4.6 M 95.38,60.88 c 0.17,-0.27 0.39,-0.49 0.67,-0.66 0.33,-0.21 0.72,-0.32 1.12,-0.32 0.4,0 0.79,0.11 1.12,0.32 0.99,0.63 1.28,1.94 0.66,2.92 -0.39,0.62 -1.06,0.99 -1.8,0.99 -0.4,0 -0.78,-0.11 -1.12,-0.33 -0.98,-0.62 -1.28,-1.94 -0.66,-2.92 m 6.38,-20.19 c -0.6,0.95 -1.94,1.27 -2.91,0.65 l -0.1,-0.06 c -0.91,-0.65 -1.16,-1.9 -0.56,-2.85 0.38,-0.61 1.05,-0.98 1.78,-0.98 0.4,0 0.79,0.11 1.12,0.33 0.48,0.31 0.81,0.77 0.94,1.33 0.12,0.55 0.03,1.11 -0.28,1.58"
           id="path16" />
        <path
           class="d"
           d="m 114.65,79.19 c 0.42,1.03 1.14,1.96 2.11,2.65 0.07,0.05 0.15,0.1 0.28,0.19 0.98,0.62 2.11,0.95 3.27,0.95 2.12,0 4.05,-1.07 5.17,-2.85 0.88,-1.38 1.16,-3.01 0.8,-4.61 -0.36,-1.6 -1.32,-2.96 -2.71,-3.84 -0.98,-0.62 -2.11,-0.94 -3.27,-0.94 -0.12,0 -0.25,0 -0.37,0.02 -0.71,-3.16 -0.92,-7.77 0.03,-11.26 0.11,0.01 0.23,0.02 0.34,0.02 2.12,0 4.05,-1.07 5.17,-2.85 0.88,-1.38 1.16,-3.01 0.8,-4.6 -0.36,-1.6 -1.32,-2.96 -2.71,-3.84 -0.98,-0.62 -2.11,-0.94 -3.27,-0.94 -2.11,0 -4.05,1.07 -5.17,2.85 -1.6,2.53 -1.12,5.8 1.02,7.77 0.02,0.02 0.05,0.04 0.07,0.06 -1.35,4.52 -1.14,10.32 -0.04,14.42 -0.14,0.13 -0.29,0.26 -0.43,0.4 -0.23,0.26 -0.45,0.53 -0.63,0.82 -0.32,0.5 -0.55,1.03 -0.71,1.58 -3.37,0.49 -5.2,1.67 -6.82,2.73 -2.04,1.33 -3.96,2.57 -9.64,2.67 -1.96,-0.23 -3.55,-0.18 -5.29,-0.12 -1.43,0.05 -2.91,0.11 -4.85,0 -1.34,-0.07 -2.1,-0.88 -3.46,-2.42 -1.8,-2.06 -4.22,-4.65 -9.37,-5.02 v 4 c 3.29,0.3 4.8,1.89 6.36,3.67 1.49,1.69 3.17,3.62 6.26,3.78 2.12,0.11 3.76,0.05 5.21,0 2.49,-0.09 4.45,-0.16 7.85,0.68 2.61,0.64 12.1,9.67 14.77,14.32 -0.11,0.14 -0.22,0.28 -0.31,0.43 -1.74,2.76 -1.03,6.39 1.62,8.25 0.07,0.05 0.15,0.11 0.28,0.19 0.98,0.62 2.11,0.95 3.27,0.95 2.12,0 4.05,-1.07 5.17,-2.85 0.88,-1.37 1.16,-3.01 0.8,-4.6 -0.36,-1.6 -1.32,-2.96 -2.71,-3.84 -0.98,-0.62 -2.11,-0.94 -3.27,-0.94 -0.53,0 -1.05,0.07 -1.54,0.19 -2.56,-4.19 -8.65,-10.45 -13.19,-13.79 1.81,-0.63 3.05,-1.44 4.21,-2.19 1.43,-0.93 2.61,-1.69 4.86,-2.07 m 3.88,-26.93 c 0.39,-0.61 1.05,-0.98 1.78,-0.98 0.4,0 0.79,0.11 1.12,0.32 0.48,0.3 0.81,0.77 0.94,1.33 0.12,0.55 0.02,1.11 -0.28,1.58 -0.6,0.95 -1.94,1.27 -2.91,0.65 l -0.09,-0.06 c -0.92,-0.65 -1.16,-1.9 -0.56,-2.85 m 0,23.46 c 0.39,-0.62 1.05,-0.98 1.78,-0.98 0.4,0 0.79,0.11 1.12,0.33 0.48,0.31 0.81,0.77 0.94,1.33 0.12,0.55 0.02,1.11 -0.28,1.58 -0.6,0.95 -1.94,1.27 -2.91,0.65 l -0.09,-0.06 c -0.92,-0.65 -1.16,-1.9 -0.56,-2.85 m 0,26.3 c 0.39,-0.61 1.05,-0.98 1.78,-0.98 0.4,0 0.79,0.11 1.12,0.33 0.48,0.31 0.81,0.78 0.94,1.33 0.12,0.55 0.02,1.11 -0.28,1.58 -0.6,0.95 -1.94,1.27 -2.91,0.66 l -0.09,-0.06 c -0.92,-0.65 -1.16,-1.9 -0.56,-2.85"
           id="path17" />
        <g
           id="g24">
          <g
             class="g"
             id="g20">
            <path
               d="m 53.05,104.81 c -0.24,0 -0.49,-0.07 -0.71,-0.22 -0.56,-0.39 -0.69,-1.17 -0.3,-1.72 0.28,-0.4 0.53,-0.82 0.75,-1.25 1.46,-2.96 1.27,-6.38 -0.51,-9.16 -0.37,-0.58 -0.2,-1.34 0.37,-1.71 0.57,-0.37 1.34,-0.2 1.71,0.37 2.23,3.47 2.47,7.91 0.65,11.6 -0.27,0.55 -0.59,1.08 -0.94,1.58 -0.24,0.34 -0.63,0.52 -1.02,0.52"
               id="path18" />
            <path
               d="m 58.73,107.75 c -0.25,0 -0.5,-0.08 -0.72,-0.24 -0.55,-0.4 -0.67,-1.17 -0.27,-1.73 0.46,-0.63 0.87,-1.31 1.22,-2.02 2.28,-4.61 1.79,-10.03 -1.28,-14.16 -0.41,-0.55 -0.29,-1.32 0.25,-1.73 0.55,-0.41 1.32,-0.29 1.73,0.25 3.63,4.88 4.21,11.28 1.51,16.73 -0.41,0.84 -0.9,1.64 -1.45,2.38 -0.24,0.33 -0.62,0.51 -1,0.51"
               id="path19" />
            <path
               d="m 47.49,101.69 c -0.2,0 -0.41,-0.05 -0.6,-0.16 -0.59,-0.34 -0.8,-1.09 -0.47,-1.68 0.78,-1.37 0.84,-3.04 0.18,-4.47 -0.29,-0.62 -0.02,-1.35 0.6,-1.64 0.62,-0.29 1.35,-0.01 1.64,0.61 0.99,2.15 0.89,4.66 -0.28,6.72 -0.23,0.4 -0.65,0.63 -1.08,0.63"
               id="path20" />
          </g>
          <g
             id="g23">
            <path
               class="k"
               d="m 53.05,102.77 c -0.24,0 -0.49,-0.07 -0.71,-0.22 -0.56,-0.39 -0.69,-1.17 -0.3,-1.72 0.28,-0.4 0.53,-0.82 0.75,-1.25 1.46,-2.96 1.27,-6.38 -0.51,-9.16 -0.37,-0.58 -0.2,-1.34 0.37,-1.71 0.57,-0.37 1.34,-0.2 1.71,0.37 2.23,3.47 2.47,7.91 0.65,11.6 -0.27,0.55 -0.59,1.08 -0.94,1.58 -0.24,0.34 -0.63,0.52 -1.02,0.52"
               id="path21" />
            <path
               class="k"
               d="m 58.73,105.71 c -0.25,0 -0.5,-0.08 -0.72,-0.24 -0.55,-0.4 -0.67,-1.17 -0.27,-1.73 0.46,-0.63 0.87,-1.31 1.22,-2.02 2.28,-4.61 1.79,-10.03 -1.28,-14.16 -0.41,-0.55 -0.29,-1.32 0.25,-1.73 0.55,-0.41 1.32,-0.29 1.73,0.25 3.63,4.88 4.21,11.28 1.51,16.73 -0.41,0.84 -0.9,1.64 -1.45,2.38 -0.24,0.33 -0.62,0.51 -1,0.51"
               id="path22" />
            <path
               class="k"
               d="m 47.49,99.65 c -0.2,0 -0.41,-0.05 -0.6,-0.16 -0.59,-0.34 -0.8,-1.09 -0.47,-1.68 0.78,-1.37 0.84,-3.04 0.18,-4.47 -0.29,-0.62 -0.02,-1.35 0.6,-1.64 0.62,-0.29 1.35,-0.01 1.64,0.61 0.99,2.15 0.89,4.66 -0.28,6.72 -0.23,0.4 -0.65,0.63 -1.08,0.63"
               id="path23" />
          </g>
        </g>
        <g
           id="g26">
          <g
             class="g"
             id="g25">
            <path
               d="m 65.63,46.22 c -10.35,0 -20.83,3.74 -27.34,9.76 -7.04,6.51 -10.76,16.61 -10.58,28.62 -1.97,0.29 -3.49,1.98 -3.49,4.03 v 18.53 c 0,2.26 1.83,4.09 4.09,4.09 h 2.08 c 0.32,0 0.63,-0.05 0.93,-0.12 v 1.64 c 0,2.26 1.6,4.09 3.57,4.09 h 1.94 c 1.97,0 3.57,-1.83 3.57,-4.09 V 82.43 c 0,-2.26 -1.6,-4.09 -3.57,-4.09 h -1.94 c -1.76,0 -3.21,1.45 -3.51,3.36 0.07,-1.9 0.21,-3.73 0.44,-5.21 1.18,-7.4 4.21,-13.57 8.88,-17.88 5.79,-5.35 15.57,-8.81 24.91,-8.81 1.07,0 3.31,0.04 4.37,0.15 v -3.57 c -1.23,-0.12 -3.24,-0.16 -4.37,-0.16 z m -35.24,60.53 c -1.5,0 -2.71,-1.21 -2.71,-2.71 V 91.76 c 0,-1.5 1.21,-2.71 2.71,-2.71 h 0.93 v 17.7 z"
               id="path24" />
          </g>
          <path
             class="d"
             d="m 65.63,44.17 c -10.35,0 -20.83,3.74 -27.34,9.76 -7.04,6.51 -10.76,16.61 -10.58,28.62 -1.97,0.29 -3.49,1.98 -3.49,4.03 v 18.53 c 0,2.26 1.83,4.09 4.09,4.09 h 2.08 c 0.32,0 0.63,-0.05 0.93,-0.12 v 1.64 c 0,2.26 1.6,4.09 3.57,4.09 h 1.94 c 1.97,0 3.57,-1.83 3.57,-4.09 V 80.38 c 0,-2.26 -1.6,-4.09 -3.57,-4.09 h -1.94 c -1.76,0 -3.21,1.45 -3.51,3.36 0.07,-1.9 0.21,-3.73 0.44,-5.21 1.18,-7.4 4.21,-13.57 8.88,-17.88 5.79,-5.35 15.57,-8.81 24.91,-8.81 1.07,0 3.31,0.04 4.37,0.15 V 44.33 C 68.75,44.21 66.74,44.17 65.61,44.17 Z M 30.39,104.7 c -1.5,0 -2.71,-1.21 -2.71,-2.71 V 89.71 c 0,-1.5 1.21,-2.71 2.71,-2.71 h 0.93 v 17.7 z"
             id="path25" />
        </g>
      </g>
    </g>
  </g>
</svg>
